<svg width="24" height="24" viewBox="0 0 24 24" fill="none" xmlns="http://www.w3.org/2000/svg">
<g id="basic/book-open">
<path id="Union" d="M20 3.5H16C15.2209 3.50219 14.4532 3.68707 13.7585 4.0398C13.0638 4.39253 12.4615 4.90327 12 5.531C11.5385 4.90327 10.9362 4.39253 10.2415 4.0398C9.54685 3.68707 8.77911 3.50219 8 3.5H4C3.46957 3.5 2.96086 3.71071 2.58579 4.08579C2.21071 4.46086 2 4.96957 2 5.5V16.5C2 17.0304 2.21071 17.5391 2.58579 17.9142C2.96086 18.2893 3.46957 18.5 4 18.5H10C10.2652 18.5 10.5196 18.6054 10.7071 18.7929C10.8946 18.9804 11 19.2348 11 19.5C11 19.7652 11.1054 20.0196 11.2929 20.2071C11.4804 20.3946 11.7348 20.5 12 20.5C12.2652 20.5 12.5196 20.3946 12.7071 20.2071C12.8946 20.0196 13 19.7652 13 19.5C13 19.2348 13.1054 18.9804 13.2929 18.7929C13.4804 18.6054 13.7348 18.5 14 18.5H20C20.5304 18.5 21.0391 18.2893 21.4142 17.9142C21.7893 17.5391 22 17.0304 22 16.5V5.5C22 4.96957 21.7893 4.46086 21.4142 4.08579C21.0391 3.71071 20.5304 3.5 20 3.5ZM10 16.5H4V5.5H8C8.79565 5.5 9.55871 5.81607 10.1213 6.37868C10.6839 6.94129 11 7.70435 11 8.5V16.671C10.6787 16.5578 10.3406 16.5 10 16.5ZM20 16.5H14C13.6586 16.5033 13.3203 16.5656 13 16.684V8.5C13 7.70435 13.3161 6.94129 13.8787 6.37868C14.4413 5.81607 15.2044 5.5 16 5.5H20V16.5Z" fill="#21BF25"/>
</g>
</svg>
