<svg width="20" height="20" viewBox="0 0 20 20" fill="none" xmlns="http://www.w3.org/2000/svg">
<g id="IconFrame">
<path id="Union" d="M10.217 1.67502C10.142 1.66669 10.0753 1.66669 10.0003 1.66669C9.92533 1.66669 9.85866 1.66669 9.78366 1.67502C5.28366 1.78335 1.66699 5.47502 1.66699 10C1.66699 14.525 5.28366 18.2167 9.78366 18.325C9.85866 18.3334 9.92533 18.3334 10.0003 18.3334C10.0753 18.3334 10.142 18.3334 10.217 18.325C14.717 18.2167 18.3337 14.525 18.3337 10C18.3337 5.47502 14.717 1.78335 10.217 1.67502ZM15.767 6.66669H13.817C13.6003 5.65835 13.2837 4.75002 12.892 4.00002C14.1003 4.57502 15.1003 5.51669 15.767 6.66669ZM10.0003 3.33335C10.6087 3.33335 11.5753 4.55002 12.1087 6.66669H7.89199C8.42533 4.55002 9.39199 3.33335 10.0003 3.33335ZM3.54199 11.6667C3.40866 11.1334 3.33366 10.575 3.33366 10C3.33366 9.42502 3.40866 8.86669 3.54199 8.33335H5.91699C5.85866 8.86669 5.83366 9.42502 5.83366 10C5.83366 10.575 5.85866 11.1334 5.91699 11.6667H3.54199ZM4.23366 13.3334H6.18366C6.40033 14.3417 6.71699 15.25 7.10866 16C5.90033 15.425 4.90033 14.4834 4.23366 13.3334ZM6.18366 6.66669H4.23366C4.90033 5.51669 5.90033 4.57502 7.10866 4.00002C6.71699 4.75002 6.40033 5.65835 6.18366 6.66669ZM7.50033 10C7.50033 9.40835 7.53366 8.85002 7.59199 8.33335H12.4087C12.467 8.85002 12.5003 9.40835 12.5003 10C12.5003 10.5917 12.467 11.15 12.4087 11.6667H7.59199C7.53366 11.15 7.50033 10.5917 7.50033 10ZM7.89199 13.3334H12.1087C11.5753 15.45 10.6087 16.6667 10.0003 16.6667C9.39199 16.6667 8.42533 15.45 7.89199 13.3334ZM12.892 16C13.2837 15.25 13.6003 14.3417 13.817 13.3334H15.767C15.1003 14.4834 14.1003 15.425 12.892 16ZM14.0837 11.6667C14.142 11.1334 14.167 10.575 14.167 10C14.167 9.42502 14.142 8.86669 14.0837 8.33335H16.4587C16.592 8.86669 16.667 9.42502 16.667 10C16.667 10.575 16.592 11.1334 16.4587 11.6667H14.0837Z" fill="white"/>
</g>
</svg>
