<svg width="20" height="20" viewBox="0 0 20 20" fill="none" xmlns="http://www.w3.org/2000/svg">
<g id="IconFrame">
<path id="Union" d="M10.2165 1.67502C10.1415 1.66669 10.0748 1.66669 9.99984 1.66669C9.92484 1.66669 9.85817 1.66669 9.78317 1.67502C5.28317 1.78335 1.6665 5.47502 1.6665 10C1.6665 14.525 5.28317 18.2167 9.78317 18.325C9.85817 18.3334 9.92484 18.3334 9.99984 18.3334C10.0748 18.3334 10.1415 18.3334 10.2165 18.325C14.7165 18.2167 18.3332 14.525 18.3332 10C18.3332 5.47502 14.7165 1.78335 10.2165 1.67502ZM15.7665 6.66669H13.8165C13.5998 5.65835 13.2832 4.75002 12.8915 4.00002C14.0998 4.57502 15.0998 5.51669 15.7665 6.66669ZM9.99984 3.33335C10.6082 3.33335 11.5748 4.55002 12.1082 6.66669H7.8915C8.42484 4.55002 9.3915 3.33335 9.99984 3.33335ZM3.5415 11.6667C3.40817 11.1334 3.33317 10.575 3.33317 10C3.33317 9.42502 3.40817 8.86669 3.5415 8.33335H5.9165C5.85817 8.86669 5.83317 9.42502 5.83317 10C5.83317 10.575 5.85817 11.1334 5.9165 11.6667H3.5415ZM4.23317 13.3334H6.18317C6.39984 14.3417 6.7165 15.25 7.10817 16C5.89984 15.425 4.89984 14.4834 4.23317 13.3334ZM6.18317 6.66669H4.23317C4.89984 5.51669 5.89984 4.57502 7.10817 4.00002C6.7165 4.75002 6.39984 5.65835 6.18317 6.66669ZM7.49984 10C7.49984 9.40835 7.53317 8.85002 7.5915 8.33335H12.4082C12.4665 8.85002 12.4998 9.40835 12.4998 10C12.4998 10.5917 12.4665 11.15 12.4082 11.6667H7.5915C7.53317 11.15 7.49984 10.5917 7.49984 10ZM7.8915 13.3334H12.1082C11.5748 15.45 10.6082 16.6667 9.99984 16.6667C9.3915 16.6667 8.42484 15.45 7.8915 13.3334ZM12.8915 16C13.2832 15.25 13.5998 14.3417 13.8165 13.3334H15.7665C15.0998 14.4834 14.0998 15.425 12.8915 16ZM14.0832 11.6667C14.1415 11.1334 14.1665 10.575 14.1665 10C14.1665 9.42502 14.1415 8.86669 14.0832 8.33335H16.4582C16.5915 8.86669 16.6665 9.42502 16.6665 10C16.6665 10.575 16.5915 11.1334 16.4582 11.6667H14.0832Z" fill="#222222"/>
</g>
</svg>
