<svg width="24" height="24" viewBox="0 0 24 24" fill="none" xmlns="http://www.w3.org/2000/svg">
<g id="basic/mail">
<path id="Union" d="M20 4.5H4C3.46957 4.5 2.96086 4.71071 2.58579 5.08579C2.21071 5.46086 2 5.96957 2 6.5V17.5C2 18.0304 2.21071 18.5391 2.58579 18.9142C2.96086 19.2893 3.46957 19.5 4 19.5H20C20.5304 19.5 21.0391 19.2893 21.4142 18.9142C21.7893 18.5391 22 18.0304 22 17.5V6.5C22 5.96957 21.7893 5.46086 21.4142 5.08579C21.0391 4.71071 20.5304 4.5 20 4.5ZM20 6.5V7.451L12.51 11.776C12.358 11.8638 12.1855 11.91 12.01 11.91C11.8345 11.91 11.662 11.8638 11.51 11.776L4 7.451V6.5H20ZM4 17.5V9.759L10.512 13.51C10.9686 13.7718 11.4857 13.9096 12.012 13.9096C12.5383 13.9096 13.0554 13.7718 13.512 13.51L20 9.761V17.5H4Z" fill="#0493F8"/>
</g>
</svg>
